<mxfile host="app.diagrams.net" modified="2023-07-19T13:27:06.464Z" agent="Mozilla/5.0 (Windows NT 10.0; Win64; x64) AppleWebKit/537.36 (KHTML, like Gecko) Chrome/114.0.0.0 Safari/537.36" etag="5v9oap-kaOcRO9up_3uf" version="21.6.2" type="github">
  <diagram name="Страница 1" id="tP9sDlKzd8lW46_GECRi">
    <mxGraphModel dx="1050" dy="1718" grid="1" gridSize="10" guides="1" tooltips="1" connect="1" arrows="1" fold="1" page="1" pageScale="1" pageWidth="827" pageHeight="1169" math="0" shadow="0">
      <root>
        <mxCell id="0" />
        <mxCell id="1" parent="0" />
        <mxCell id="HRUiJ10pt6c2no83OOGq-1" value="&lt;font style=&quot;font-size: 14px;&quot;&gt;Составить блок-схему нахождения среднего арифметического из 4-х чисел&lt;/font&gt;" style="text;strokeColor=none;align=left;fillColor=none;html=1;verticalAlign=middle;whiteSpace=wrap;rounded=0;" vertex="1" parent="1">
          <mxGeometry y="-1169" width="340" height="60" as="geometry" />
        </mxCell>
        <mxCell id="HRUiJ10pt6c2no83OOGq-4" style="edgeStyle=orthogonalEdgeStyle;rounded=0;orthogonalLoop=1;jettySize=auto;html=1;entryX=0.5;entryY=0;entryDx=0;entryDy=0;" edge="1" parent="1" source="HRUiJ10pt6c2no83OOGq-2" target="HRUiJ10pt6c2no83OOGq-3">
          <mxGeometry relative="1" as="geometry" />
        </mxCell>
        <mxCell id="HRUiJ10pt6c2no83OOGq-2" value="Start" style="ellipse;whiteSpace=wrap;html=1;" vertex="1" parent="1">
          <mxGeometry x="340" y="-1120" width="120" height="80" as="geometry" />
        </mxCell>
        <mxCell id="HRUiJ10pt6c2no83OOGq-6" style="edgeStyle=orthogonalEdgeStyle;rounded=0;orthogonalLoop=1;jettySize=auto;html=1;entryX=0.5;entryY=0;entryDx=0;entryDy=0;" edge="1" parent="1" source="HRUiJ10pt6c2no83OOGq-3" target="HRUiJ10pt6c2no83OOGq-5">
          <mxGeometry relative="1" as="geometry" />
        </mxCell>
        <mxCell id="HRUiJ10pt6c2no83OOGq-3" value="Input x, y, i, j" style="shape=parallelogram;perimeter=parallelogramPerimeter;whiteSpace=wrap;html=1;fixedSize=1;" vertex="1" parent="1">
          <mxGeometry x="315" y="-980" width="170" height="70" as="geometry" />
        </mxCell>
        <mxCell id="HRUiJ10pt6c2no83OOGq-8" style="edgeStyle=orthogonalEdgeStyle;rounded=0;orthogonalLoop=1;jettySize=auto;html=1;entryX=0.5;entryY=0;entryDx=0;entryDy=0;" edge="1" parent="1" source="HRUiJ10pt6c2no83OOGq-5" target="HRUiJ10pt6c2no83OOGq-7">
          <mxGeometry relative="1" as="geometry" />
        </mxCell>
        <mxCell id="HRUiJ10pt6c2no83OOGq-5" value="average = x + y + i + j / 4" style="rounded=0;whiteSpace=wrap;html=1;" vertex="1" parent="1">
          <mxGeometry x="320" y="-840" width="160" height="60" as="geometry" />
        </mxCell>
        <mxCell id="HRUiJ10pt6c2no83OOGq-7" value="print average" style="shape=document;whiteSpace=wrap;html=1;boundedLbl=1;" vertex="1" parent="1">
          <mxGeometry x="340" y="-720" width="120" height="80" as="geometry" />
        </mxCell>
        <mxCell id="HRUiJ10pt6c2no83OOGq-9" value="&lt;font style=&quot;font-size: 14px;&quot;&gt;Составить блок-схему нахождения факториала N&lt;/font&gt;" style="text;strokeColor=none;align=left;fillColor=none;html=1;verticalAlign=middle;whiteSpace=wrap;rounded=0;" vertex="1" parent="1">
          <mxGeometry y="-590" width="350" height="40" as="geometry" />
        </mxCell>
        <mxCell id="HRUiJ10pt6c2no83OOGq-11" value="&lt;font face=&quot;Times New Roman&quot; style=&quot;&quot;&gt;&lt;i style=&quot;font-size: 24px;&quot;&gt;n &lt;/i&gt;&lt;span style=&quot;font-size: 24px;&quot;&gt;! = 1*2* . . . * &lt;/span&gt;&lt;i style=&quot;font-size: 24px;&quot;&gt;n = &lt;/i&gt;&lt;font style=&quot;font-size: 36px;&quot;&gt;П&lt;/font&gt;&lt;/font&gt;" style="text;strokeColor=none;align=left;fillColor=none;html=1;verticalAlign=middle;whiteSpace=wrap;rounded=0;" vertex="1" parent="1">
          <mxGeometry y="-540" width="280" height="80" as="geometry" />
        </mxCell>
        <mxCell id="HRUiJ10pt6c2no83OOGq-12" value="&lt;font face=&quot;Times New Roman&quot; style=&quot;font-size: 18px;&quot;&gt;&lt;i style=&quot;&quot;&gt;n&lt;/i&gt;&lt;/font&gt;" style="text;strokeColor=none;align=center;fillColor=none;html=1;verticalAlign=middle;whiteSpace=wrap;rounded=0;" vertex="1" parent="1">
          <mxGeometry x="180" y="-550" width="70" height="40" as="geometry" />
        </mxCell>
        <mxCell id="HRUiJ10pt6c2no83OOGq-13" value="&lt;font face=&quot;Times New Roman&quot; style=&quot;font-size: 24px;&quot;&gt;&lt;i style=&quot;&quot;&gt;k&lt;/i&gt;&lt;/font&gt;" style="text;strokeColor=none;align=center;fillColor=none;html=1;verticalAlign=middle;whiteSpace=wrap;rounded=0;" vertex="1" parent="1">
          <mxGeometry x="210" y="-520" width="70" height="40" as="geometry" />
        </mxCell>
        <mxCell id="HRUiJ10pt6c2no83OOGq-14" value="&lt;font style=&quot;font-size: 18px;&quot;&gt;&lt;i style=&quot;border-color: var(--border-color); color: rgb(0, 0, 0); font-family: &amp;quot;Times New Roman&amp;quot;; font-variant-ligatures: normal; font-variant-caps: normal; font-weight: 400; letter-spacing: normal; orphans: 2; text-align: center; text-indent: 0px; text-transform: none; widows: 2; word-spacing: 0px; -webkit-text-stroke-width: 0px; background-color: rgb(251, 251, 251); text-decoration-thickness: initial; text-decoration-style: initial; text-decoration-color: initial;&quot;&gt;k &lt;/i&gt;&lt;span style=&quot;border-color: var(--border-color); color: rgb(0, 0, 0); font-family: &amp;quot;Times New Roman&amp;quot;; font-variant-ligatures: normal; font-variant-caps: normal; font-weight: 400; letter-spacing: normal; orphans: 2; text-align: center; text-indent: 0px; text-transform: none; widows: 2; word-spacing: 0px; -webkit-text-stroke-width: 0px; background-color: rgb(251, 251, 251); text-decoration-thickness: initial; text-decoration-style: initial; text-decoration-color: initial;&quot;&gt;= 1&lt;/span&gt;&lt;/font&gt;" style="text;whiteSpace=wrap;html=1;" vertex="1" parent="1">
          <mxGeometry x="200" y="-490" width="70" height="50" as="geometry" />
        </mxCell>
        <mxCell id="HRUiJ10pt6c2no83OOGq-15" value="&lt;font face=&quot;Comic Sans MS&quot; style=&quot;font-size: 24px;&quot;&gt;&lt;b&gt;&lt;i&gt;What&#39;s the&amp;nbsp;&lt;br&gt;Fucktorial ? &lt;br&gt;&lt;div style=&quot;text-align: left;&quot;&gt;&lt;b style=&quot;background-color: initial;&quot;&gt;&lt;i&gt;Sorry I don&#39;t understand&lt;/i&gt;&lt;/b&gt;&lt;/div&gt;&lt;br&gt;&lt;/i&gt;&lt;/b&gt;&lt;/font&gt;" style="text;strokeColor=none;align=center;fillColor=none;html=1;verticalAlign=middle;whiteSpace=wrap;rounded=0;" vertex="1" parent="1">
          <mxGeometry x="260" y="-490" width="330" height="60" as="geometry" />
        </mxCell>
        <mxCell id="HRUiJ10pt6c2no83OOGq-16" value="" style="shape=image;imageAspect=0;aspect=fixed;verticalLabelPosition=bottom;verticalAlign=top;image=data:image/webp,UklGRoJEAABXRUJQVlA4WAoAAAAYAAAA/wEA/wEAQUxQSAUcAAAB8Idt22Mp0fbVed2p8sqhu8EGGzEPNGBCwCyGZ5hhzIkWsUFRJ5JUMghGomEcc846Oef0zhgnCuqYJmezBMP9x1rdvbqq1qqqN3VETIAx5P8h/w/5f8j/Q/4f8v+Q/4f8P+T/If8P+X/I/0P+H/L/kP+H/D/k/yH/D/l/yP9D/h/y/5BEwe1sZfThMxctq7to5mGjKxmTIRXjzi6HnnPp5Ztuf/QJ3e/HH7l1/ZpLzpnSYVKaxatTzl123Xc+1IP4/tfWLT5nUonSKCpNmrXi0Z06kNseWHzmGDddcsacufiB7TrQL204a4yTGuUnXbJFh/G5JYdWeQrkdvfcvE2H9v7ebjflyR285Hkd7heWHlJh6U1u8hVv6PB/eO+ssW4qQ8VDr3hbR+TW+WPd9MU7+JrtOkKfW9DtpivuuEv+piP2+QVj3fREDD/39zqCt8wb46Qk/lF364h++rRcGuKMvfhNHd3Lx7mph/+JJ3SkPz9/rJNuFHre0FH/+MfdFMMdt1o3wf+eXUZa4U1/WjfHq/d304ni2a/pZvn7U7JpRH6ubqLvn1dB2oDCebq5rtvPTReo+indbH93UjZNoF2W6ea7fVYxPaD25bopX1RCSoDqQt2k53WwVAClz+qmvW6CmwKgcKFu4k9McxM/FM7TTf1P09yED5mzdZP/0zQ30YN7wlvNTv9pmtvMhFvqGLHryM5h1YJnCkYxbOwTuvn/aZrbrPIHn7vihvu//oOf/Oh7X3/snhvXX7Fm5aKZk0oUp1BYoVvBP01zgwEiQoS4Y2fc/K5u5LY7zz+0jccleGfp1vD3h5mDRaVJMxetXLV61coVi2ZOrvLwqFxbxeOGYbhj52/Vjf/gtuPLFIvAJr3UIuivd4vBcMacufiBbbqfOx5dce7kEoUgd/C5l935pUduXHbWmI5TntGDvGGiG4vartct4y1daJg7bsEW3cDtd845OBcwd+yy/+g+X/qaHvyXeorxB95M3UKuqKAx7rhFL+pGv7Z2Ui5ImZOf1kH/VIViDjDh2VZCX1RAA5wx81/Qg/nmqv28wORnbtPBv/vsCUURawordWs5J48BZU56Ug/2qwvHOsHI9+pw/vW+lWeNceIK3NN0qzkziwEUZ23XAXz8E14AkO/VIX7mjDLFEqD7mZZj20ku+iNHLdbBfHNWadCQn63DvXGiG0vcebr1/O1+hL7M8bfrwH6qNEgoztVh33pSJn4A3VtaEH11uS978td0gOd1sMFAfq4O/5tnZOOHN1+3pOf4qCP2/74O9Mpd0DgU5ugofPtkL2YA3Vtakzc/4cIwDHTeogN+aQmNQnaWjsatE1nM8ObrFvWJbgAoLNCBn5tHY+CdsjMi9Bc6ECeA7i2til7gA/4MHcLePBoBNvE5HZmzPcQJmqFb1pf2I3f6a2HQp3toRMeNOjq3TgBiA+Bvbl30qkL3EzqUfzxMYkDwenWUrsjHCBr/agujZ6/QIb2vc0DA+C2R8p9JQGzgs3Qr+6EO7SezGIi7QEdrL8UFoHJHSxPi90520S+ge0vErBBATKAp2+OJfqob6Bf16Ijd6MQEgObouLos3x+AL4uaG3yKCVS+Pbbo01z0x9oQNZ/PxoYp2+LLM91AX5S7NWpuyMQDgF+gY+w8rz/VB6Jms8eAOEBt98aZLeOA6LrGjguH7ogzeqFfD2DF26NmmWIUAwCarWPtC+OBPrzNUTNTxAMq3Rpv9IpCPWLmyvD88uF77v3x+wPaun9cmPJOzPnvZKCePD8kL11z+uSP7LX3QacuemBb/xblBUPrB1CvjrtrCkC9I94Nw58uP3bPYR0d7R0dw4Z/5MTr3ujHkweoeEBqZex5bXJf7XeFYPNxo9urlXKpVCqXK23te02/8sV6T51clJxgxICOx2KPXuoDNcKcE7yle1bLpUI+l81mc7l8sVSudB1x0XU/eOahT00sKRETDt0Rf14cXwMmzIkvBm7VroV8NuN7ruu6np/J5vKFQqF9nwmjcrYpOYsBAJutY/AiH6hR5aWB+9PhGd91bMsyLcuyHdfz/UzG9z3HMqVghBhAamUcen5cDXFlT3opaPrKYbZlKllXmZZlO47j2LalpOAxYdgX45Be4NWRVmVJ4N44XEnBOWOMcS6kVMo0TVNJwTkjwIgBh+2MRVu6a5gwnYN/EzQ93+OM+mSMc1GXc8YIMQBgs3U8nkEAGFdWpTdw3+xihL6JWJ9EBMBo/UiujEk3FwAQl6bTdX/Q9FRGMOqiluqj1ogDmRti0vYpBBATys5eELiri+jDMAz024iDoK4fxCS9zAdAXFrupOeD9sZk6k/cBNiROi4/P44AYkLZ1VVB0582gdhCbE5s0vM9AMSl5R63M2hf7owzakV82tJdw4Ryur4UNH0kxRj/uvikZxAA4tLKrQ/clQUgrrCR34lRm/waJkx3ZeBen0wxBWBHfBCjXhlHAIgruzdw+kIJxBNis3WcnllPWhNfDdyDHbFFLIlVt5ZqmDCrXwicPpziilwbq96dTACIK+ei4C3zgXhiXhWr9Pm8jrSO3h64F8ZRPGHe5nh1d5UAYsLc5d7A6Vk8jgCscGu8eu9QAsC4cucG784qEEOIjfphvNJLPQDEpTXpD4F771CKJfzID2PWc90EEBNmeUng9FIPiCO9Om73EAAmlD3pxcA9102xZHHs2pgBQFxalaWB0z2xRKyOXS93E0BMmM7kPwTu5iIQO5haG7t0Tx2u7OqywL0zmVKhjRkAxKXpTnkpaPoiCbRuxIVglAi83E0AMaHstjWBe3hYq8arU2YtXnP55WsWzzp0uEn9ADEzhukeAkBcWu4x24P24WHUijljzlr+2E7d97fWX3rmGKcf6rIYtilTw4RyOu8Mml7sAa2W2z1vix741sVTSlRPLolhL48jAMSl5Z0XuK3d1GrlTv+1bux7d5w9xqkzJ4bps+swYTqTXgma7mmxxKhFehCfnTfGJS6PjWObMgBAXFrVGwK3MQO0UOZ+d+jBffq0Apf7PhnDXu6mGiZMZ3bgXu6mFkrt/2U96Csm5Nvvj2G6pwaMK/vgV4Ome1ootud9OoC/69n1uji2KVNDXFrVGwO3MQO0SOi4SgdzzTfj2MvjqIYJ07kocC93U4uE0nydZJ5dA+LKPu6DoOmeFgn+OTrR3JSpJ63dvhW4ZQJogeBOfz3ZeGUc1TBh5jcH7sEqtURjH9cJ59k1IK7clYHbfmgrhMzFOum8pVRPWnMDp+cwoNWBe8LOxOPtyVTDhHls8K7LUqsDdD+pk8/eGjBh7vXTwL0yvvXx5usE9NZSDXFVuSNwuoeAlgaY8EIS8u5kqiPz1wZvmaAWp7BCJ6JzeT3vmuA9WG1tgCmvJyP3thFATNhXBG/bIS0NUFirk9GdhxEAJsw1wdOzGdDKTHkjIdGLvTpqaQhWSmpdgMLlOind2k0AcTUnBDdkWprJrycmuqfesSH4QVfrAnhLdHJ6c7FGjvlV8PSRDGhZup9LUN6ZTDWjvh2COYxaFn6OTlIv9Yi4HPm1EKwyWxWgfEeisqWbiMnOL4fgplzLQofsSFT0DCImhn8xBD8axVoTgM/VyeqmTFj0kQxoSah6d8Ly6jjGROeXwzCHUYtyyI6ERS/wuRj5jTAsky0JwObopHXLOC72fSoMV1utCeWuT1x0D5dTdRhvyLDWZMKrycvNZTk7FPdUWhGAztbJ67uHycWh+EYnI7QeJFckMHppcU0ofj+mNWl7OInZOvHqUOipvCU5ZHsSoz93Szh6WxCA9epE9hfPhmNxK0J8STIT1lWCtSDmlUna6pYke2OSdlkrwrp+mOoB7EidqElGaDGIzU77xJKEjbce5hWJ2uoWhLkb0r7sDakewMp3J2pLWg9inV9L1Oa0IPwjv0nUjmlFpuok/Yl9W5HeRO2hYZK1HosTtZtLrQcTqxK1Db5gMCKdzMLw3UaPKNsspVhpRxtvO3TOlfd++5dP/OCha5ecOcZJI+aqKHO7Zz/4oe7v1iVTShSI1YnaMYpTVKmu857VA96+6fDcYIGYTNR+sld0ZT76Vd3QbSvHu4N3WZJ2a1lGVX7mW7rRvzk5O0g8WVvjRVXxPD2IO84tpghzTcGiCJmZenAv2YWlBR9MNQWDEblwT3h7kPQ1o3hK8K1RKpom/FoP+saRSAeuySlO0YPCGh3ApWWkAp+0ZQTBO10H8lNFNG51crbzaFOyyAH2+30w9Nkekr/HOk3BEDn51Tqgz44HGrUkOVvtKc5gRCu8U3VgV+QbNic5O9eSnCIG2O83wXnncIYGHZ+YvXKQKVnkVK7SAd5YBhoz/rmk7PqyKRiiBYVP6iC/c0hjmNzjR0lZr604wYhSr3ulDvYSD2jIyK8lZM8fZMlocccv3KoDvrW7MaL9gYRsVdkULELc7oUv6uDPoIEZYKJ8WzK24xhbcYbIyJ32Kx3GpRxoRP6GZOzeEZbkBCMi870f6lBudqkh/sZk7HzPFCwysufokH57RGOcqxOx5yfaijNEA7xTdoTlwyMaQcK6PBFbWrYkJxjRMOG3OrSzGTAwrtYkFf/rr1Hy0mTHFCwiUL5Kh3eFpIYsSSpunhcly6uW5IRIoOpndYiv8xozJ6lYO/a+6HhlimMKRjAi0Dtggw7zt0c2RB6TVHyq7WOvRsaaNlsJhghwxs5/WYf6gyMY0IB9fplQTC909r4XEW8c45qSU/icsfOe1WGfzWhgTLY/kEw8e2A2N/KzEXHlLrYSjGCEOzdpyVYd/mWyIcUbk4nv7elnsqPXR8Irh7iW5IRw5SatfUNH4W35ARlgwt+QTDw60nX97KFPR8HyNlsJRjBC7O236k0dja/uxxrhXJFM3Nlu247XcebfwvfsFNeSnBAiZ+zCV3RkzmSEgVlrkokbi5ZpOf6wnn+G7oI2WwlGMELrTX9cR+it5UaopcnEhqyplOVkhvf8PWT37uFakhPCUzz7dR2lHx4jB0RczUkmrvGUlMpyM7vM+Fuo/v7RvK0EC1HxAh2x93cBA5uaTFzhSMGFstzM8LN+G6YLO1xTcgKMcKJ4gY7chYWByb1+nkistQRnXCjbzQ4/6obwrO7ybCVYaJA/T0fw6R4G1H5fInGZEowxLpTtZgt7LdgZktvH+o4pOQFGKJGfraP4t+OB/jFZvDGh4IyIcaFsN1MY1fubUDwwqeBakjOCEUp4Z+hoXp4fiPA2JBKrFSeAGBfKdjP5ziNWvxq8Gw8ue7YSjBAOoPvXEfXeMQL9MMCEfUUisaQOiHGhLNfPFbuOWf9mwFaMKXq2KTkBRjjyy3VU39IO9M9cnkjMkXVAjAtlOV62UN59+lUvBegPF43O+Y4pOQsL2JHbIksfLwagzk8kjqsxDIAYF9K03UyuWB519GfufzcY726aOiLnO6bkjAAjjED1eh3dt7QD/SCujkkito6vZwBEjEtlOV4mXyxX956+YNP33h+sN66fvnsx5zuWFIwAIySHfxBh+mg2gH0fTyB+sodkdQyAiHGhTNv1MrlCqdLWOf6khRu+saNh79y/4OO7lwpZzzGlYBQWoHC1jvKNZaA/suOhBOJbXX0ZAIgxLpVpu14mly+WK23tI8aeMO+KzZ+/5e6HvvLdn/z8F7/42Q+/87VH77v981fNm75XtVzIZVzblIIRAUZIJr8Rae8eQv1hsviFBOJLu4i+DABEjAupTNtx/UwuXyyVK9W29uEjunbfa8yEAw+aOPHA/SeM3WePrs6OaqVUyGU8x1KSMyLACCVAc3S0ry0A/fHWJxAPdggGo28ARIwLqUzLdjw/k83lC8VSqVypVKp9VyqVcqlYyGcznmObSnBGBBhhKd0eca9N7ssAE/aVCcQ91f4ZBgAixrmQyrRsx/V8P5PN5fL5fL7QZz6fz2Uzvuc6tqmkYIwAGGGhye9EnF7sAf0wlycQt5cHYhgAiBjjQkhlmpbtOK7reZ7fb89zHce2TCUFZ0QAjJAC3qU66rd290udn0DcVByYYQAAEWOcCymVMk3Lsuz+W5ZlKiUF54wIgBFaZE54M/L0fK8v4uqYBOKGXCMMA7VExBjnQggppeq/lFIIzhkjAgAjtHA/8U8d/Vu6gX7s+3jycG2GUyNqUUtEjDHGB84YIyIAMMLsTvuzboYzqB+y/f7kYZPfuFrUpcairhFqecizuilu8oF6TOauSx42DlJ9NNYIP0Y9qJvjy+OoL+GsTh7Wu0GIaBQu0c2yp54BJsy5ycM1TrOC36Ob5i0loA91TPJwVbOCPOJvzWPbFKpHXO3+w8ThSrtZDb9bN9FlPtBH6QuJwxVWc4I3SzfTlyZQH9K7JnG4vDkB43/fVPTFPlDDpLU8JfAW6ub64oQ6YMKclTisbUrA+BeajF6cBQwDTKiJf0oczKbUvl43250nujXEVfWupGFNM0L+c7r5PtkN1Eh3deKgmg8w6V9NSF+cAUBMWuenAefoZrzjBLdGmEdtT/7okqD899Xnnnvln29HhX6yGwATasSXkj6AVgTivrmnTz/2qKOOmXZCz8JND//8zxGgVxYB4spbk458e1Ln8GEd7e3t7R0dw0buPfH4i/4cPn1+HsSldUHiR+zSIPSOaKuWS3XL5Uq1fVjX5gjQvQXi0jxqe/J3bgBu3rdcLORy2dpcLl8oVdo+EwW6t8CE2flo8nfIvwft1f+p5LO+59b1PD+TzZeO+XcU6BXjcsq9Klm4rBnxysJBu6gz57u2ZZmmaVqWZTuunxv9WCTo55cetce1yZ/s3DxIK3fLeo6lpBRCCCmlMi3HKy2JBq31D3cmC6ubEZPmxC2Dcv2YrGubUnBWl3MupGl7H4uMpLE5CbN83mDcuH/RtZXgjIgAqmVcms5eP0iRlD1ycePWdBc9WwlOBMAwUJe4tAor0yIQl6Yz6uIGbb1odNazTcEJMPoJMKHsaekRE8r2Rp5x71+11n/90rJLn+jrDyuP6Mx6tik5G4AB4tIa/fV0yAAxLk3bK+1+xJmzz5o6duRuR6748U6tt9z12SNGFLKebUrOCDAGwISZXZgWgZiQpu362XyxVK5Uq20j958+4+TJo6uFXMa1TckZAcYAwLiyp25LjYgLaVqO52eyuXy+UCjWFvK5jOdYpuSMMCADxKW160PpkAEQY0Iq07Id1/N8P5PJZDMZ3/cc21SCMyLAGBgTZuYzKZEBEDEupFKmZdm206dtmUoKzgiAMTAwoezD/p0agYgxzoWUUimlzFqlpBScEQEwGgji0trl7pTIAAAiYoxxzrnom3PGiAAYjWHC9C9MoC5rToaBWqrP+iYiADAaCzCu7Ml/To0Mw0D/iQj1jYaDuLTaNidPa5pYf9G3MaggJkz3lHQqoADjyt7nx+mdAeLSKi5P9ZgwnePeT/FAXFpd96V3BohJMzsrzQMTyh7/TJpHXFqVy9M7A8SE6UxL88C4snd/JL0zQFxaud5UjwnljHs8xQNxaZWXpHcGiAnTOeI/KR4YV/bwzWkecWn6H0/vDBATyh51T4oH4tLKnp7eGSAmTGfPx1I8EJdWvqeJ/DttMEBMmM5ejzaNR3+RPoBxZeXPbBZv9H4zhSAmTGf3+5rEuoO+ljoYIMaVnTupOfz1mD2+nEKAuDCdEeubwuIRo7+UPhggxpXlHf5KE/jR/rlRj6QRICZMp/0zTWBGJTPyoRTCADEuLW+veyNv7Ujf63wwlQAxYTq54/8acT87wHed4fenEQaIcWm5wy6MtvfPKLuO3XFfOgFiQtle15WRdukIz7astrtTCQMgLk0nc8B3I+z2fXzHMs3KHakF49JyK5/4Y2Q9dVjetZRU5dvTCQMgJpTtDZv1dkS9fkbVs5UUsnRrSmGAGJem4484b1s0nd/p26bgQhZvSi1AjEvLyYyYuy2K5u2acUzJGReFm2OP2aoZADGhLDcz8txXo+fi3TKupQRjTJTviDtrWzcDIC6U7WaHn/DDqLl4dNazlWBETJRvTzUYF8r2sm2HXBctl4zOebYSnIgYz10fd9a0cAZAjEtle9ni3p97JUIWjc75tik5I4C4tzHuXKZaOAMgxqWy3Ux+12M3vR8RH35udM53TMkZocZdn2YYADEulOVm8qXdT7vz/Sh4be6onO+YkjNCvXVxZ3VrZwDEuFCW42cLbfucuOGPofvNjJE53zGlYATASEVAjAtl2l4mX6yMOuZzd/0lVLcdPSznO6YUjAAYaYhhAMSYkKbl+Nl8sdK+xzGfueFnYfnPon3LOd8xpWAEwEhJDICIcaFM2/Wz+WK52t514Omrv/paCO46YVQh69mmFIwAGH1ck3oYAIhxIZVlu34mVyiWq+2dYz82//Pf/m+gvjPnI5V8xrVNyRkBMPpwUhADABHjQirLdjw/mysUy5W2jq5x0z577Vd++0EwvnLhAcOKOd+1lOSMABipimEAIGJcSGVatuv52Vy+WCpX29pHjjn05PmbH/zpq+8Nys+vPHXcsFI+6zmWEpwRACNtMQCAiHEhpDIt2/X8TDZXKJbKlWpbx4i9Dpx6cu/izz/6g2deeu2DgWz96hUzDhpZKRWyvmubUnBGAIx+XZ2OGAYAEDHGhZTKtGzH9fxMNpcvFEvlSrWtvX141z77TZk67ZSzzr3wkmuuvfGW275w3dXzTjl8bGe1XMxnfdexlOSMCIDRL/uqtMQwDAAgYowLIZVpWbbjen4mk83lC8ViqVyuVKttbe3tHR0dwzpHdHWN2KWjrVoplwq5rO86likFZwTA6G/NFbFHxgjDQC0RY5wLKZVpWrbjuJ7nZ7LZXC6fLxSKxVKpVK5fKhUL+Vw247m2ZUrBGREAYyBWumIYBmqJiDHOhZRKmZZl247jup7n+5lMNpvN5upns5mM77mObSopOGMEwBhgzeVpSy1qiYgxzoWQUinTNC3Ltm3HcVzXdb1a13Udx7ZMpaTgjBEBMBqxNu4sjSW1qCUixhjnXAghpVJKmaZpWn2bplJSCs4ZEQAYAwdxFXvOjy21qEtExBhjnHMuamXfQgjOGSMiADAaGYs+Gmvqoj7VZfV5LaslIgIAo8EgLpfGnD8dGH/qo7/UX9Q3Gl9zYcz5/bi41G/01xj0mpkx57fdksWuQNf0xJxfjU0+ZsScp/YVicdZMeeJvQWDkWycGXN+vmfSwWLPj3dP+36wW/JxRsz5fgJyesz5XlfycVrM+dbI5OPUmPO1zsRDnBJzvrILp/+jAUx8PObc15ZsGGDioL/Em+Vu4sGH3xJrdk6VSQdx57g/xJlFVcESD1k6/r4P4sq/Lx6hkg8mlD/6uAtXXXXNuvUbNmyMhxs2rF93zdVXrbrwyA5Tcoakg0tlu5l8sVxt6xg2bHgsHNbR3lYpFbK+YynBKOEAMS5N2/Wz+UKxVK7Ew3K5VCzkMp5jKcEZwUg4iAlpWo7rZ7K5XD4m5rIZ33NtSwnOCMmGARDjQirTsh3X8zzPj4Ge57muY1umFJxRAgJijAuplGlZlh0PLcsyTSWl4IwIMBJOAESMcSGErFUxUNYKwTljREg+DAAgIsYY4zGSMcaICACMBBR1KXairpGYIo4azRcAVlA4IMomAAAwwACdASoAAgACPrVOoEunJCMhq7/oGOAWiWlu/Fd5EEAPAGX9qYHWpNnjj+v/jd+1XzJ+K/rX+m/tPkL+OfQ/5r+xf4b/iewflL9M/t/E/95v4n+K9rv8j3p/ND/V9QX8j/qH/C3k8AH1o76/Uj8R+wB+rXjjeFB9w/7nsB/zv+8/+7/We7V/Z/tR57vzv/O/tP8CX9E/v/ps///3M/uJ/8/3/+VX9rhofX66dPY1Rx9dOnsao4+unT2NUh1ei0+VjUhFp8rGpCLT5WKzCQi0+VjUhFp8rGpCLT5WKzCQi0+VjUhFp8rGpCLT5WKzCQi0+VjUhFp8rGpCLT5WKzCQi0+VjUhFp8rGpCLT5WKzCQi0+VjUhFp8rGpCLT5WKzCQi0+VjUhFp8rGpCLT5WKzCQi0+VjUhFp8rGpCLT5WKzCQi0+VjUhFp8rGpCLT5WKzCQi0+VjUhFp8rGpCLT5WKzCQi0+VjUawjvZGfLB+B5Y6aEZ/15t0BUvlfXVh4iq46j5E5Tb+Ggp74Udxuujz35yBJEdJwMJPlkrHQ+/PD7SOjOdQ/yU5f2AB9gakItPlV3S4FGB95/pOfmUjm5P4dVGvsnrdnzmYpr6b3C6jvyFrVxuy4pE0ZEE+MB8S7qqsJIVVCem4ovrCKFUu/AJOP7x+HlgOdW8cdSABFyzWdxPnJUkWd/TTJ4YcX28cT4rptWYWAg8APP0fe0x23dJrTk5iFlCerKpA322ycaNVhEHlwefEOFUVbj+dj/903qldpOGeeBS/stJL44R1jomEIfh7xGeXFICIquOo+gjiHHV2OVOUmBjBmcPu7pgd9RFxfyf6LJ3g0Z1wMkf3JFFesbDUKLeWNaPAetbrbE+E6PurISvVOwcfkx9wJItKO+jZx5WDzJgoKSDUhFp8jMAxKQqn0qhPBvb9mOKpqHPlf341vyfuU0t0f7UMBwLnYHgxp8k0BkSGMUWC2IK3dsoOpc9eZ0Wnqrcj2G1oh0xiTCnfnUrq9m9lWev4BvOjcAQHT+s7VlXkW+UjyitDqjgWRJdJRXPiYPPd16NFfPQMSwecIgASCI6Jx5aEU0zLrjR9ZuQ5QblR8SJnBwqo24V6fkbCuC94yo94hGfb8OLK/4F7Muz3xpaLKyqj8Eag6bn4Vh28TMq1IAB1amDObB4w4kfhxmByID3NakIsKBTiUkAHa9inRP/OYC2+RJfI4S9rGFcSM5+AY1bOL0TbLRtY0E23fkdiDXhQycEfp4gGKCWdaZK6pnH74ngJOShtoamHFdzYveJHpelgUqiuPO+sMvgHPUafiU7peb2F4NBqrYJu6OY9SR+B5wEQ+4N2SEXvque+jUJTVpPLPSEsyk10dvO6E0+tDqbmo5rZXk6J4vZ7/HG31fE2P9llVd5UspUJTRQAYsGcBTf/mFAvXWqqrtXf71wwWAiomZXTPLwgEfaUqgkOy00YtxqmdjjpBQID8jkbdRPn1O7rWIgt/fQcnM7y66lNK/ogEDK5bKZpDvoltUJihaA2HWkRRNwtge2mmAkrelwA05+1wkUEynqIcdSABIHhACM3klyQlFSRz1Guhxl34hNHAwLHUuPY/JMXu784etf8Rf4IK5V3qMM+7snVBgl9dNQcF+25ra5jEHyYchbhODBPQuis6kItPlY1Fp0+TM4QhfYKqjdZnItIel2iXniJFkJ/dIRrcXekuYVm+vFh5BDx3yiB4G1070omXqlmgpz2OzB6s7FvysakIsLWUrgazXmYOn17ACe+KUUL8hXhFBWNWLJBYSG+bwyfgBIRafJBZjEO09jfT87yQkYDY64uRNFhPSyIet4YzNDotPlY1GTcfp4gnVS05GdYZmD7tPahRbXH/3yEeJsb1eNhrQF8ugT3hFp8qoJwmIkABG+Cm1DH+5pyeGxroNJateXyNz2Om9oWDyv2UjrKEncRIAEhFpc4zESAAjfCIDj6Ll6UCGm37Tto5VuLT5WNGvNjBtW1YnGl88AAkOzAtkDMb1pv3+1wSksP0RisJxI9Bly4kIDjOVsSFRM9pruzD7QtJTOIj/mAAP7+OAAdAAAAAAAAAAAAAAAAA6rUIu/3/+8syOyNepEC/hHG7zMI5KNxSK94+eVdcNHa5zKymkwADKdUz+SdGjZ/eaH8r5Mo6LFOL6shtCWYUcJdJ8fMP9NLRGrhDGNze6qbImEg3VlGiAjXsAWzg3Mp415GpH2li8yPV5PQVpanpFMS+1u+Uh28v6wQAS7o6WOW8ErHqOXhAFpQGCWM+sM9ijqN3kHAXvcmbhdud3g709R81+M0zEZZ+TJWkXWuAWFYxAnMd0OS/fmV8r9pBrlTQHOFhzgwTOtgTBtqlfjInRhlOZfb+Zcj3+z7pT2VeXut1/mUQTk79ag2xgayrQmZnQuUPJxo4jlwUSCgaPycOSJIo9gH3Q5/DItTTlbmk7SZbQOdeBtPwdun7c+QzWCOzXkO3HTF3f1XJPcu2TzoP91BoyI1Utgs8STJOrUyu9xBsgydxk59y3hHjjoiVArs0eYbX2K1FOMFeXjHke0jh86pKFgsXf3t3+aO8nK68Q7mzoYDYzeyGe7oVvzzf8phH36qRpiN2Iv5kD5lsseHBFLlbR5fzArJNGusEUdz3fuoAbnovC7Dmz1cFX7Bo/UbnL1PZBA1tIiOJDDhMQVuTX9xqtW+drUbFYvE1on1Kvzp1l6346bPVpLkwsUzOxUkUt/ZZX8Hys/5PsJzGiXNudiR2wjmQA+LHefENjJ/eGjvsfCies9SEcTJVZgv/FT1iiY4pQxvS+MRryeUrKvQ6pDvvy5mR+RDaaVIiq1ZRrNN7tw3hR8lqq+Q6UGkF1md+R8dWBj9wO7JWhYnqWmaArnZvsrCJzwZYP0G4pzpJ54VN/OZAHcmwhS885IE82pvmveoBWzPYN0qaY8AF1nlFSDcqepzTuqX76VKSm68AVYpFxrAnA+GahL3YKWEybVpAcOm4e7mhTGwQKjKH3CJz4DVJjvH6dCT5pMBxWFmnMKahIVk9IXZpYDvDltoGFBWOdC2ICfCf7oe4cxYmnOI0MH4MI71KWjSLUZ7SJd1j4QPRlT8+ye3LWS235Iff8kAHmlp7YqFsmtRJjzyXRRMzYu2kKBXNb4cAS9wsXlqF5tsVMpRUzwd+QZYz3mIJtBp9cX6f1jY/TWSeH2dMqliCEdPH+TnLDXIg+5Rg/Klg/9hExTeEJBiQIcXV7J6SZLL7dSPEDUoX8uPf6QRq+KfbDpnk9lFvQD0AS8LBw/cXVCvOpIgHRYXHgF/DoQz96KLaO1dH1N/BYqH3mD85K0aEybzQlKUjjNMn1Xbc1FCfR/sMWJXi+Jm2+4VQUdPJ6K34nWVaBLFrgqsye3Cz+MhcCshMyo2GUv2KhbKEJPDZivsYdxpOjNPbErIWDyWX6UUSANkLOlC7tPnbhnuvwkgxKXesOlznTWwYUPauwHkcIrtg6KtHvEXCzSJ8y9fRa1h3X9VJTg1Ftgf697RQg5K3ZyiIkZ2XIy6lAV29O6nKhVrH48aRdS6LxKVMJRUou/FZInwUmOHdxLTF6vtcFuBuvzn74A2ZcvG1VdqMWxZB5FjNinBkjtbmNpX3t7YN0x6ZjCdLMfD37YiqbyS/SvUfpFxx45ygYfLu8WgXgEHhfhPrrwP4UQvb7Fa/ffuBn/dsqRsMexDAEuPnjAwJP8BV7TIWjtomoft0XwApuwBadjHufDCAGM4k69fjb3UqTIKuYEkmJoSzgW6dNgYaPtjJ8e/Fd2Qhfhq5a791+lSL58T7VzAtKPlTQAVEidazZ2PTsYnDAXiduj1dG8Py6+4PkV1v9RRTEH8qKKmdnjqDRYmJH1fGCLKBhloGODXSUIipZBr2KFUYI5HpFWA4m5IqtH3dplnrh+UrLAN8kag1WqqLrIQUx11rXzkXeFyxePFeZZv0JS2j3F2TpxK1oFHbEKZUTWzsyVw0mGZbD/oF2ZMd0faEfW1ksnc8JX3rrJ4/pBPHQoQtu8PwmToPaywemZzlkvcWGH3gqh+wbAeFnUq/+8ou6IsJVxVHKHd0uFk5vnOME5EHpGjiByzm1CeN6pscxEsH+jL9nPt54qhN97LoDHw5kQ22BPgm6ID/bK4SU+7j3rMYSObTU2Avl/HDlEQQ4F0tFB4iklYYd0lWC0NzJTO4AlE0XyU1KBH+Fx9ogAMTW/SB0cojvTN97x98YnlOfWK9yzBYeNrkGJjHg6IcqRMdyY58Q9f9RIn+K58ZCm9YPQE8lznRKN2jsAkG5fFQ1O3kGRd82yOJe6SPUxU7JRKzcPEN4mFHMdaurW6gReJ+D5y1sa8F8YC/zHZKm08qs1ZR84DH0KokzYifI5p8UfXpFpwBh/mgwbBKgothM8K1wSMZ7HzKThAZtkS+CE2nn7VvlaxH3cze8mQSN9arzlwrv3waXX8Okb4Tg+96AYDto1pC6zO12ivbTMNx5ytbXYfoEQ611BP3ZzeEUzjsCq+1ulicpeXo5MGCAtWNvP61PBoUWGxih/zCbLLnnz6wnD92h2s2X5VcKmPHcV29kywO8Aqq3tJlqSJVk4jHU/KdSXu0rF7j2fmKTGJNKA+BCiMil0DnpKaLhNJyRLSThih9Qeq8mI+YnOHG/4n7WY4UjEGYak44nwRmL54vxS3MN2c162k608PgfMPCxLxBAOTcb9vqUJsYi9nTMiRbqyi1m+UjJsYtVADkPFM/hRKEJ8Cxbgarl8Zht8nPIWLHyKUtjX8Phk3zUb/Q+A+pKIIvcf1EJM7Dxty9jmdQ2YhcX6Qt35C29BYyUNx4k71l00nvzRaP2Xod6g8HB82qAZGZUQgdXiiz0/HFiODHTi7a67isGtp1ltiiD0636iU+emgO8CDwLybaRWGS6xJuUe5BTpjgcndUetYlNQ3JWoQU8YpzNhVpohlzx0weGp9l8C+3gkj3wn5/UiiG6WDZo5xlE/DbEhMqJrf5YdaYWI8mcRLs3GBUgxogBiQv5oOgd8wDuEr8oi8Xue40Jf/pC6NJD9b68P/pZ7VUZyJ++PV4+0btFlr75q7pJDoP7Za/et8gZ/aKCe2f3WLV4e2lOxTI2HLbpyIjxNmzNsQBTINHjcmHDgjUC1cVX6GDB0ucBoX9AWPGjuwAFjeCKtKP8/t61E6xwfwVDk10bL+zuIOMIBk4Gi7nUE+7eiIgY5PNd+4BMCW+1+yuQ9B2sa+uHHCH1CVZEc8V6gJDNrTYugvHt2332So26hkZXDFsNl2YVDVkAu4dhv13V12amNx0JUddZrYlwgRwtZz6ShdVP2WZWKx/QL+E7xzler+O8/hwehd0hJT/IGOZ6GGwV2rN2e4My9QAK+CvmlZ8GK6eoPV2jYEEDlIqszQjuylySPo2k/0/qcOg0Br8D3P7JT+VE8fb75sRzeBfFKB2fd9CF+N0UeUCmRaEKQa2qThfBD2VqbrRM3wYmFtxAgFhDLo6VImE2N4g30nFaJGOSprr61yk8vhxSXeR92VkcW6nXBzJJNbsUDafHT0TsBpZSJofhYofF8Cdwc2ItWzj5c63oPXAtMZvS2WFVZf4jTxqyyULRk79BfmXPyjVQKkluSlCTzKpHavdPisMylGRPoyhhXMc8Y61uBrsoun/ZzE7M5vEgAc26O5HyKcNcuiXRxU46gZL2RVV0OGBNmsGzXaMA901mRSXXnhBfK9m6dAluYiAJRkiR/ji/7BlzZGoSvK10ehi04gQ+zC+tqjWhuCX7c4z2pB72q+5PwCghOiZUsVjjwMnZwKP4GXkvuFeM5oBpFqGVZYFBjE6lw58RVXhEE8zdDD0dGWfOziT02S8u5bpRvJVW9ZjwgvIXP510xU+P5Mz6k43VrpY9IPwCotnMi2hmntgkyceMT+LhKcPo/40hW7eEALCHv4ctgryBMyQX6AKds7vZ5zmAz5s03ll41+GBt+CxhCvL7UMHhtWpLmCH5JMdNxeshw9CoW1L15wB68v4asvpXcrywgO+bRa1XyS9rZudlsXbuctGpDs2Hgc59QIHQHYQQQBTIlzbnYlWoKtUpiIA0nLHSjY9Ph5gFwEFs7FDfZGm89kGQo8HW6sZt55klEiYOHLalQ6yIjL8ydW1gsM6lLRIXVTs148qzcZTgQAbUrVyC3AkPZ856SCp4WIU+hH44U0UvS91AFkmropxAuJEoufx6IdJRetlTWDLmS5PMqHnjzQ1b/S48aA3kvktxiu9i2YaUSk7aoYHwc2OaO+ll3bHD+2We7XsgOa74ARdOOBMGQ/3Cuklfn4gwudPcHh3mLvidnvj9rq9bCGHGd1+7rYIf5XY3BED2qfX+BwA+h7CUHHc6gzL2BY3SsVdchOFW3107E8+d7zbsyGLyx1MNDkv78FCGQfOea4w8iDTD+Z9I+u4eI17RKWD3XkIP5AZVCPlp+XACB7wXCc2WnTdtWDm+dFBy00ZDpYTJAdZuPDXz8OD8DDYmEhnJqMOMdcPFSH7DKWZ8pmgYgCyvGg6dPezwPLlqoxP+6lcW2GS2ec6Dqw5fUMx396aSeVlVaTyLUnnQFnEbcbOjzd7Ybcpu9iQkeUnWTba3wo/t11XTaiehaMgEPgB+pW/Y44eNiDaJSlFmqu1VRR5nqkuo/TdkP5jpxh4TgyVmtmSz+GEjjBLG02K5/cQij31D/jx5KPhnSMNThJ5OPtccmzaz2Sr/Cb0s7mp2G5QVFq7bgypuXwrUQF7/kIwEfnvmNrWcsgOsGr4dW2HgHykJ1d5sFm12bDwxR+YbpCKuEDVocrk9Yuyjj/myVw/gqCNSo6XGsttOLbf0B0AxrYMW+0dRDBvurPYokD3sfWzdZYYCK6gsPEia79krN+jpQnkN+DJeHu1UuseE8ApPIsBlfBqlFp5op3KfSUpSnaOO8d7j55KcFX69KtWRknMPzBNTF/EPCqOzmyK4YeFWwj+kYVyIL/ob6OQi3vcl5fkJrWG1B5Ck/VTdp2qqkhGyHVK5bzjhBWemYt+h+6mEnt+iXXu1J7x0JJ81RGZwGE/8DRAqCxpg6pwuFj2EPmpxz1EAHhXKYOfAYbu0Jat+JNAGcvGApQAAkSpDnXjXdaJXYU18eCTfZ1Co0Gg5ElHQVm22y+xQIiGBObC7p5gtHtAbN69oNIhDy20XxP3ddD7YQxQ+C+wc/OnX7m0WRmGxRWCoLCJE/K8YJJPg7uMOel+/MQFEV3eTNaRAiAcmpwNu5xq3CSaid3gMVo35obs5nH3t01sRiJMlpP+cLJNNFvtRfj7AijBDoYreanD+ZQbi82RAM74jfAgXSzdCLzGJWzpFjDkieuJuRUDZUQT3BXgwKmLAP5YyHL0gVgx7lwCPmxI6SdRqH0GOdIEAp4J8XJOlwqUuaYLldRdYuzGZFnUflkrCMz96qU73BZP3E9Ag+I8li+RN/o6x0ALVHi9iqjWRRHUH3eMOAAZqjyPtXcU7ATG0/m0PRBt9744xOCZGgaivaNzVa76ryei4pIboCHPoInZQHF4jovO6Ymo64vUCfwDIvaaEFB4inLiVSivWJ/6p2a+qTFQMjM0CswpZUOp5UcVD5ynvjhcnEoikofvtwvRpgid6gmb4Z3KQ0jNV1QXdxcG9HQt4gBvhHrrasX4/W0vBxa1K9fzk1hYgIlrWMhRhByHn5lhaKADsyOUeHbl1HKDBCQvkhz0Oh9BJ/O1zWzPWpOAphvwco1KdjNX/8nRsmODfdrEKW4aJB9lVNvwiPnB4TcAFtLZsGDhwLm5byEiEwVrUogII+afPY8vo+ApB5oII2ce66vmbYXF/wCeuydsUNrPbYZUm4tSmw3FAoHrG8jimqsat5jUZR5k+PzJfTBUcyYFKiCQIvtdjgPqQud7Nnk3a9a8XnzOglHph9G4ReL855l8eLFULNd4kN2qD+b+f//YdngQcNC4/5mfv2HurIToMastDPK5xCqgNrRYY6VfwE/yFYtGqeTtw74WPHq/AL6cVn3IbEo/WagrKqB43fzdMIXR2ORsc7rifykCTbRiE/4z6hYMSXhOJlAR2pc1cD/mx3yMuUDkzxCCpOlhLBvTi5ykGMwvypOOO/+WWg4UJ6Em8Lc9EQHqaQXOQWUaPefj9O59BQHraQME0WZ8jmvQGDSrW+x2BeN9AQFuNuw9Xhq6vJ2hQvimvz7zWdTllgkR5kEDUsEL2Xzu1GN52RF6SLZoTVDqHZLQurjTTRFwwUCjgboNSQQV0b3NTdDBdxHq8jbjiGVhg//SsKv1BjYrxBPSEga5m0tf4nXQPkAtoixQMHfqSYf0Y5VXjEW/Qz9428xcTrUWaTtDTbIwHIt4+uNdPU8EPfJH//9gYeyCdLV9zlh2ZQcBKR2o1a2IP1vvX/ekVeFHxi3sgBX0th236l7JedaOHuil8aCWAJmDT1oBsuJHw5jINaGtbMh+RttBU5nZgsCfi7zACAvrEEQu5VXa+cW2e/VgBLilbLfE40tCNGqOEvYfe02DuGjFyxIU6I8NSRx/a8n2/6kT6jhm5NeykFJuOS4uqidcDuC75JUGY4pPWhmOOM62bfxaIouTxVsHlxPviBeI+lOeZm6esxIWVPP1US4d79RBnnC1NBnzH2KiQtWF34jV6FZe8sqaRF1vxS7V29tPXv0jsxy4ks5nyVVmccMJJA6NQkJpbAo3FtjRJzPDyoO4wQswCKqYVYktT1mDElsa76VQwwazE0cebOCVQDsiVU+SGdzSLTtGkbVCRpf/1hbjAEl9V021xSui9/8oa60nmRJeydjrih1uOWZ+Au6WRHG3Nrkp3f4+Wawda9g+ePxvqluNXqtxwtquzSM8Lh4piQBHtKvkYuYmex/q4JlFYMStnn/I1q9ItyBuxBmGU84Q+eRskmMX3ZZvFWqK5PkVYYjaD2d/d1QHigfTXfayYwBiMBmMjUGfLS+n29n6YTBvZ3upiTHr22c2Sy4WANRu9l7AdIIF0va+zVRkhrT5FGqmTs4VfizU8QCUuYcXNn0FVMJUU2MvlOgrcH5Vc59V2IOK6lc6rA3HTobgtukN/2tYN7ika6/H6qKj8yb/XYu0+4153F/S9775ddMQqnWVTeNI4wrAnt2She0EsNpsFH5dE4RhxdB8+aLeUUxM1q9AeYxAJTPT5zTzy+3xrhKTVwPX+F+8XMi2i1D++LwYE+5vOQ7LGEd3Th6SRNMVm2P/SWp+/wB0aunx9B4uStUy6ZOBDHfgaw3oTE4JMs5bY6xozoGSOx7NhX8kf5z48m3fYoj5LGOS5fe4aCNToieQW74Y6wL83+ASCVd7T9BamY/7wWPdoRNQMnSv8dunReu45UH7adgjexS9X4QUGVhbCl2nSELLsQTXE0h7PSgqzEvDKwyV+MFe1i5dx8r87CRXzdoR2NQfTGd4plW0aItcAJvyMfnvHn/U4mlQdKoapMsRpFya/TVAFGX+pxLfnPDyoxyuQcEgH9+6uEvkhN0tkpON3LVijiDSTrpfgyye/oF/KzeU+r138sBth3/6fhh8cLJerEm2eX1byrr9FnEgdC95eIKe4DQQboliqxqbyq4DQJexThj7FTOY0cKVZi3sWsr7qed2gJn+fG3sCgZ17wG0rrq1Qbo0Rxxk+MRUatnCgcc9+l/AlrLA2cTDsvmsr52638GAGEM6++0tPL6IEOxznYzK0PGgAktag0tc46nHrGUBSdvvDjIHzmsxsCBNcdCws73AoDUZjLwjUxeKFTEyVVkDb/szjwvNQIB6LdKhmni7etLM/3dkGWj1vEUz/WylWQDtCdDZubPb4hOmwe2AL1feLBPO/rTTEhFD0b/x58uVYN44u/OO+dtBNNWbj18P1sMExuiHbnZ242FlR1+kfNUI8psQ5sToTCKYfoEQSPDYlTTO9wGXyeqLfFRVSJrgWyjk2Ny1OCsmZUHbUb6CPG7nU/nMQ6LOA2Lh+VwreV24mnxCNNaNGIGNrWIBedRy7bNgtFZhmHArIxgfOPqWkdqNWy6SONiLO9zQdrc1ZMWJPtU8g1SdBG7KaW5xGatboNewJcsrW3/5FnJeCf6gLhH9US+Fv1HDfzGT/ZymTulIagUNiVJDkzU0CwetXHX6974of8c35NrF6713MbJXzRSENz9k1lLeq9DVeSFwhWPXcX0VC1ZJNbjTWdLI5dQFsSO41bwDPS+Q+BX+A+2cPh6Z0AnT7c1+NBoc3zriWoZp7hgntowYZn5fLDUUOLIQeqzXokr0z753QouHkTow1kYLAP4wV9n03fOUIeHVVXoLVrfwrPFY9zWUz1RoZzIivl7lKAB4GvwL/rjG3Ddja11qXYeBOd/33J9j6Js1vx8eI3nvEyahIxqTrH+9OSpM4Ts8DFO/dJSRPCX0ltdBrNhmOj9rPFsXN7rSJiOUbZMa1CGIZP9R4Q7RSgjvHwNeQ0ZnYPNl5PR/M0NOHz7rEr9MaktWNkX/o4pj63oCFskzlwjsfMmX1AviXeDAsGuxVU0AezAb/fPMWQeT1EvHopmHUjE0jRZcjOb5LYc5x8YFCb+dneuhJqTM1Sp9UxzUwIoQY/UMiMV8JOqTRT7Wi5fbsGqtHxFfiEdRljcsjt88SqjG30QevV08KJ3u+b2w212hazCv9Ezkph5nWaQzlWJY+4HUAQIDTLGm4NOlpvS5dWELwAnySRfjfYw0nAF2fdG7GgfFxdLROUP5P1x/2pRtE6C7JqvwVztFbBi5b2vHPbDmc7ghLdFTK+WSxPVGR71kDwLJUQJ+/vTv/+wMPr+sOGdOrMq3cnkXbmw4QRAf9lFd6oQaEcCDCr9tmJFL0rqYrD9OcM9lFYEAtL75119BKdGlwqh7JA4fbW9cb0WX5gKhbVE9793Mgh6YInLHx1U45XRKraxhLrhHd0eNKPjUvSH0jQnDO5zAfaTTHvV2JvS7hT/Hhe6gwa42PTRZ7jRm4eRYKmixm/GDNxpN4BnytWoUzmAbK8H3FGJOEDXkjfWSkwtRtIMdtgt7gMONH9qndS88vRttP1EDfP5UEC9cjJTM/Lern9AF1cPDGQnY+6ucX6tHsu85JyD/hVqyv7scefv+sHCQMVS3USsoCKV9cY8kTF+ETjPqYY0N3YcYGDf/9vh2nGEEJ9NKZu3kV/7S4pJXeNGJGqkKqAOOJpIY+KXCI9UAXE+Tv4B1Qapa74juYw2G6uwso9ya5YVxeF70F9HL4d4l51/WggrRRNfSJtrpFt36Wysd912n+GzUQWKiv2BMd/E74k5zMESdzpcFF/Qf1/yxJVgA4YXw6sAKx/NOX5xFEmq7Q9WHVyRZz0/EafgBiNduzYluFvMtLODDPLwdmWWj/9dNijHZz2B2/uGwWUyLM1LTDVSACU+6UUrOLbv/7qEF3Efl8jqSTzwNofrPCFNBXvGhksxZm8PTeB3W1yx+U0W43b/yK46EV6eGONqBhxTeHY2nmnT1aZ0oQtvhUrEe9FVv1G7rfZ8e5kMUUeLgs8j+JbiQZDKvUiPo09bQLTBU0igav2yo1GxwWbceUhiDteirGW+PY3BBwjtlw02SakNIFotQbasv0Vwt6Pcp105Hk7ArgIIP5CqlKMWp5WRU2+v7HgRXGvMqCsftDVy0WuAONzOoH6juyURvlxVDWpVwjPMBvHJz0y5xAJjq7RGacs/v1DHNd8QrJJHMM7MYUL1ZDGpw/gqDlaBg/YEZdnv3QWIBX7sQckA1Us1ZvZzMEbYeh7viTQl6lwU61ryqBDRX3y9Wb7H7rSGNXFA+/UN+We2szWRo3ODKz7hCtZ6XQ+lPcjgc1KG5Pfgksr6hFI3b58Js2njC6Ea40E4eLqO1U2DnaNyEhgYRndsy/HPJ4t1n0fKp9SqoCjpaE+ju1E5ZmkUVYqoQBSVfXabLsvZOPaRlSM9i/ADGfpbishrS82Ln78SiS/HeKMhIkqX6CiPJxRJZVxA7qLtlZ8R2Dto5v1HxWj5c5Mv6r2k3BWDPXvYJZzcTAzJ+U7gf8J3TtwpQ48epKTzuitRBQT3kRZYPw03B6Monvs5DpSwzTtAW2Bx51EqiXVeYlXEaqpV/MAzYL2E8c+L2vrwTUOyKXlNM4OHypR21vzJ7pHlsN9d3AtSxf6eMJrp8r9cGT/x7rXHzlfg0DdMy8yn9aK0hlsJzJNUG5y3LQ+PePkxkL8gDvcnx7eyXUM4KXacBW5pkkuD14ZRYc4Y2cURRVnrHundOu6eqN7ZlF+waKWpjOhTGqIhESd5bHDPl+oKnwpS/TliGRiCeNbw6aE0UwdCbDCKhnM5Of5Hsr+izmnGzaU1431CIKAPLp52Lkj6JZIBmX2CY3pU3CL/zHHXB1eTj+8F/xR+7Fw0QSuHlr1RJoKR90j9hSJUagBZsx24zXK2SghqXixDSQpiks4FAo+ZkpGcX4NO7DREWvFbqStbXGd5rxs0FqQsSwFZ4TF1rwyuGTonAcdMoBkzPBx8kt1TsYi39pQERoiI94mb+DID7mOCho/fMRamzJEhoj/mKhFG3JzR/UeNMgFBubCmZFjQA5okzRBDLA/fPkd4Tsk1W6TA0+zdRuWbkqJPYKAC5iCf//x0uSDQ+AbmTKK2in0DeTrf6rJpAnis1RG8HTc/7MlyVZmg/NfUyjO2er1uMycF2pepK7slmhHw/5tEEo9s5ZJoXkWutG75p/nhcwz3EMUQwXEBeNr5xFUylpXq5DBI0cRjSsHI/4uFScmYa1t6x1MvtYDb33KTiMTWG0c1Oj2ydbllkKvRb+fEtiNikE438tLAirCuspQdWAtqAdL+ZCSCyc+krKAjfV/KVHJegYOfVMJClVEPgnPatWIekV0eHw3YgWVRs7EG8AABG3L7RRdPqWELSopTN0S5SK52GD+qvOG5muH4H0uW/jw7knUbZ1yVjeZX2PuKg0vPcW/pXfraV0PCDCCR62TlJePeSL2C0UXYo8qWyHPRBZMiql3pmQy8By9Lumz7YMOgeE1jFO0honB0W2xUFgK8Lt+H+x+cJejh1Z8j/+/yzP/VyLpvIc0MpD5Ev1EOd9QYvKEKvqFNbHTdIDtDODL16dOjhxaEQD117kTVv4bNaU4Nq3NIdSvY9/8ozFzDLww0HYcgrbobBXZqrDAAO2cgcAVp0ovk1M5YBkHlqrRth5Vj//9jCGmxioZDZvzdpfXWCYj+zfYSWmfNS94lWx4vLLPx6Q/ngBz4AAAB+5uqBzk03PQ9YUR/QnyAoHzE69ajpsqEpHVAsw//IzTefOQ/5hvZABFWElGhAEAAElJKgAIAAAAAQBBVwcAbgEAABYAAAB7InN0aWNrZXItcGFjay1pZCI6ImNvbS50cm9sbC5mYWNlLm1lbWUuc3RpY2tlci5tZW1lcy5zdGlja2Vycy53YXN0aWNrZXJhcHBzLnN0aWNrZXJjb250ZW50cHJvdmlkZXIgcmFnZSBmYWNlIDIiLCJzdGlja2VyLXBhY2stbmFtZSI6IlJhZ2UgRmFjZSAyIiwic3RpY2tlci1wYWNrLXB1Ymxpc2hlciI6Ik1lbWVzIFN0aWNrZXJzIiwiYW5kcm9pZC1hcHAtc3RvcmUtbGluayI6Imh0dHBzOlwvXC9wbGF5Lmdvb2dsZS5jb21cL3N0b3JlXC9hcHBzXC9kZXRhaWxzP2lkPWNvbS50cm9sbC5mYWNlLm1lbWUuc3RpY2tlci5tZW1lcy5zdGlja2Vycy53YXN0aWNrZXJhcHBzIiwiaW9zLWFwcC1zdG9yZS1saW5rIjoiIiwiZW1vamlzIjpbIvCfmIwiXX0=;" vertex="1" parent="1">
          <mxGeometry x="270" y="-520" width="310" height="310" as="geometry" />
        </mxCell>
      </root>
    </mxGraphModel>
  </diagram>
</mxfile>
